<mxfile host="app.diagrams.net" agent="Mozilla/5.0 (Windows NT 10.0; Win64; x64) AppleWebKit/537.36 (KHTML, like Gecko) Chrome/127.0.0.0 Safari/537.36 OPR/113.0.0.0 (Edition std-1)" version="24.7.16">
  <diagram name="PÃ¡gina-1" id="JvyGy22DY4cgXQ3B6pEU">
    <mxGraphModel dx="1393" dy="763" grid="1" gridSize="10" guides="1" tooltips="1" connect="1" arrows="1" fold="1" page="1" pageScale="1" pageWidth="827" pageHeight="1169" math="0" shadow="0">
      <root>
        <mxCell id="0" />
        <mxCell id="1" parent="0" />
        <mxCell id="SN7cC5s7yseXUEPgOjQ7-6" value="&lt;ul&gt;&lt;li&gt;informacionPersonal: String&lt;/li&gt;&lt;li&gt;experienciaLaboral: Array&lt;/li&gt;&lt;li&gt;educacion: Array&lt;/li&gt;&lt;li&gt;habilidades: Array&lt;/li&gt;&lt;li&gt;proyectos: Array&lt;/li&gt;&lt;li&gt;referencias: Array&lt;/li&gt;&lt;/ul&gt;" style="rounded=0;whiteSpace=wrap;html=1;align=left;fillColor=#dae8fc;strokeColor=#6c8ebf;" vertex="1" parent="1">
          <mxGeometry x="464" y="450" width="200" height="100" as="geometry" />
        </mxCell>
        <mxCell id="SN7cC5s7yseXUEPgOjQ7-7" value="&lt;b&gt;CV&lt;/b&gt;" style="rounded=0;whiteSpace=wrap;html=1;fillColor=#dae8fc;strokeColor=#6c8ebf;" vertex="1" parent="1">
          <mxGeometry x="464" y="430" width="200" height="20" as="geometry" />
        </mxCell>
        <mxCell id="SN7cC5s7yseXUEPgOjQ7-8" value="+mostrarCV(): object" style="rounded=0;whiteSpace=wrap;html=1;align=left;fillColor=#dae8fc;strokeColor=#6c8ebf;" vertex="1" parent="1">
          <mxGeometry x="464" y="550" width="200" height="20" as="geometry" />
        </mxCell>
        <mxCell id="SN7cC5s7yseXUEPgOjQ7-9" value="" style="rounded=0;whiteSpace=wrap;html=1;align=left;fillColor=#E8FCE7;strokeColor=#82b366;" vertex="1" parent="1">
          <mxGeometry x="320" y="260" width="220" height="20" as="geometry" />
        </mxCell>
        <mxCell id="SN7cC5s7yseXUEPgOjQ7-10" value="&lt;b&gt;CVBuilderCronologico&lt;/b&gt;" style="rounded=0;whiteSpace=wrap;html=1;fillColor=#E8FCE7;strokeColor=#82b366;" vertex="1" parent="1">
          <mxGeometry x="320" y="240" width="220" height="20" as="geometry" />
        </mxCell>
        <mxCell id="SN7cC5s7yseXUEPgOjQ7-15" style="edgeStyle=orthogonalEdgeStyle;rounded=0;orthogonalLoop=1;jettySize=auto;html=1;entryX=0;entryY=0.5;entryDx=0;entryDy=0;dashed=1;dashPattern=12 12;" edge="1" parent="1" source="SN7cC5s7yseXUEPgOjQ7-11" target="SN7cC5s7yseXUEPgOjQ7-6">
          <mxGeometry relative="1" as="geometry" />
        </mxCell>
        <mxCell id="SN7cC5s7yseXUEPgOjQ7-16" value="&amp;lt; Create &amp;gt;" style="edgeLabel;html=1;align=center;verticalAlign=middle;resizable=0;points=[];" vertex="1" connectable="0" parent="SN7cC5s7yseXUEPgOjQ7-15">
          <mxGeometry x="-0.3333" relative="1" as="geometry">
            <mxPoint as="offset" />
          </mxGeometry>
        </mxCell>
        <mxCell id="SN7cC5s7yseXUEPgOjQ7-11" value="+ setInformacionPrecional(String):Void&lt;div&gt;+ addExperienciaLaboral(String):Void&lt;/div&gt;&lt;div&gt;+ addEducacion(String): Void&lt;/div&gt;&lt;div&gt;+ addhabilidades(String): Void&lt;/div&gt;&lt;div&gt;+ addProyectos(String): Void&lt;/div&gt;&lt;div&gt;+ addReferencias(String): Void&lt;/div&gt;&lt;div&gt;+ getCV(): Object&lt;/div&gt;" style="rounded=0;whiteSpace=wrap;html=1;align=left;fillColor=#E8FCE7;strokeColor=#82b366;" vertex="1" parent="1">
          <mxGeometry x="320" y="280" width="220" height="110" as="geometry" />
        </mxCell>
        <mxCell id="SN7cC5s7yseXUEPgOjQ7-12" value="" style="rounded=0;whiteSpace=wrap;html=1;align=left;fillColor=#E8FCE7;strokeColor=#82b366;" vertex="1" parent="1">
          <mxGeometry x="590" y="260" width="220" height="20" as="geometry" />
        </mxCell>
        <mxCell id="SN7cC5s7yseXUEPgOjQ7-13" value="&lt;b&gt;CVBuilderFuncional&lt;/b&gt;" style="rounded=0;whiteSpace=wrap;html=1;fillColor=#E8FCE7;strokeColor=#82b366;" vertex="1" parent="1">
          <mxGeometry x="590" y="240" width="220" height="20" as="geometry" />
        </mxCell>
        <mxCell id="SN7cC5s7yseXUEPgOjQ7-17" style="edgeStyle=orthogonalEdgeStyle;rounded=0;orthogonalLoop=1;jettySize=auto;html=1;entryX=1;entryY=0.5;entryDx=0;entryDy=0;dashed=1;dashPattern=12 12;" edge="1" parent="1" source="SN7cC5s7yseXUEPgOjQ7-14" target="SN7cC5s7yseXUEPgOjQ7-6">
          <mxGeometry relative="1" as="geometry" />
        </mxCell>
        <mxCell id="SN7cC5s7yseXUEPgOjQ7-18" value="&amp;lt; Create &amp;gt;" style="edgeLabel;html=1;align=center;verticalAlign=middle;resizable=0;points=[];" vertex="1" connectable="0" parent="SN7cC5s7yseXUEPgOjQ7-17">
          <mxGeometry x="-0.0822" y="3" relative="1" as="geometry">
            <mxPoint as="offset" />
          </mxGeometry>
        </mxCell>
        <mxCell id="SN7cC5s7yseXUEPgOjQ7-14" value="+ setInformacionPrecional(String):Void&lt;div&gt;+ addExperienciaLaboral(String):Void&lt;/div&gt;&lt;div&gt;+ addEducacion(String): Void&lt;/div&gt;&lt;div&gt;+ addhabilidades(String): Void&lt;/div&gt;&lt;div&gt;+ addProyectos(String): Void&lt;/div&gt;&lt;div&gt;+ addReferencias(String): Void&lt;/div&gt;&lt;div&gt;+ getCV(): Object&lt;/div&gt;" style="rounded=0;whiteSpace=wrap;html=1;align=left;fillColor=#E8FCE7;strokeColor=#82b366;" vertex="1" parent="1">
          <mxGeometry x="590" y="280" width="220" height="110" as="geometry" />
        </mxCell>
        <mxCell id="SN7cC5s7yseXUEPgOjQ7-19" value="#CV: Object" style="rounded=0;whiteSpace=wrap;html=1;align=left;fillColor=#CFE0CE;strokeColor=#82b366;" vertex="1" parent="1">
          <mxGeometry x="455" y="60" width="220" height="20" as="geometry" />
        </mxCell>
        <mxCell id="SN7cC5s7yseXUEPgOjQ7-20" value="&lt;b&gt;CVBuilder&lt;/b&gt;" style="rounded=0;whiteSpace=wrap;html=1;fillColor=#CFE0CE;strokeColor=#82b366;" vertex="1" parent="1">
          <mxGeometry x="455" y="40" width="220" height="20" as="geometry" />
        </mxCell>
        <mxCell id="SN7cC5s7yseXUEPgOjQ7-22" style="edgeStyle=orthogonalEdgeStyle;rounded=0;orthogonalLoop=1;jettySize=auto;html=1;entryX=0.5;entryY=0;entryDx=0;entryDy=0;endArrow=none;endFill=0;startArrow=block;startFill=0;" edge="1" parent="1" source="SN7cC5s7yseXUEPgOjQ7-21" target="SN7cC5s7yseXUEPgOjQ7-10">
          <mxGeometry relative="1" as="geometry" />
        </mxCell>
        <mxCell id="SN7cC5s7yseXUEPgOjQ7-23" style="edgeStyle=orthogonalEdgeStyle;rounded=0;orthogonalLoop=1;jettySize=auto;html=1;entryX=0.5;entryY=0;entryDx=0;entryDy=0;endArrow=none;endFill=0;startArrow=block;startFill=0;" edge="1" parent="1" source="SN7cC5s7yseXUEPgOjQ7-21" target="SN7cC5s7yseXUEPgOjQ7-13">
          <mxGeometry relative="1" as="geometry" />
        </mxCell>
        <mxCell id="SN7cC5s7yseXUEPgOjQ7-21" value="+ setInformacionPrecional(String):Void&lt;div&gt;+ addExperienciaLaboral(String):Void&lt;/div&gt;&lt;div&gt;+ addEducacion(String): Void&lt;/div&gt;&lt;div&gt;+ addhabilidades(String): Void&lt;/div&gt;&lt;div&gt;+ addProyectos(String): Void&lt;/div&gt;&lt;div&gt;+ addReferencias(String): Void&lt;/div&gt;&lt;div&gt;+ getCV(): Object&lt;/div&gt;" style="rounded=0;whiteSpace=wrap;html=1;align=left;fillColor=#CFE0CE;strokeColor=#82b366;" vertex="1" parent="1">
          <mxGeometry x="455" y="80" width="220" height="110" as="geometry" />
        </mxCell>
        <mxCell id="SN7cC5s7yseXUEPgOjQ7-24" value="" style="rounded=0;whiteSpace=wrap;html=1;align=left;fillColor=#e1d5e7;strokeColor=#9673a6;" vertex="1" parent="1">
          <mxGeometry x="80" y="60" width="220" height="20" as="geometry" />
        </mxCell>
        <mxCell id="SN7cC5s7yseXUEPgOjQ7-25" value="&lt;b&gt;CVBuilder&lt;/b&gt;" style="rounded=0;whiteSpace=wrap;html=1;fillColor=#e1d5e7;strokeColor=#9673a6;" vertex="1" parent="1">
          <mxGeometry x="80" y="40" width="220" height="20" as="geometry" />
        </mxCell>
        <mxCell id="SN7cC5s7yseXUEPgOjQ7-27" style="edgeStyle=orthogonalEdgeStyle;rounded=0;orthogonalLoop=1;jettySize=auto;html=1;entryX=0;entryY=0.5;entryDx=0;entryDy=0;endArrow=none;endFill=0;startArrow=diamondThin;startFill=0;" edge="1" parent="1" source="SN7cC5s7yseXUEPgOjQ7-26" target="SN7cC5s7yseXUEPgOjQ7-21">
          <mxGeometry relative="1" as="geometry" />
        </mxCell>
        <mxCell id="SN7cC5s7yseXUEPgOjQ7-26" value="&lt;div&gt;+ selectCVType()&lt;/div&gt;+ construirCV()" style="rounded=0;whiteSpace=wrap;html=1;align=left;fillColor=#e1d5e7;strokeColor=#9673a6;" vertex="1" parent="1">
          <mxGeometry x="80" y="80" width="220" height="110" as="geometry" />
        </mxCell>
      </root>
    </mxGraphModel>
  </diagram>
</mxfile>
